{"title":"The.Amityville.Haunting.2011.BRRip.XviD-RLF","uid":6910104,"size":743043759,"categoryP":"video","categoryS":"movies","magnet":"?xt=urn:btih:0ff706c94522f523a4e85b0d0eaa4c34dedebc77&amp;dn=The.Amityville.Haunting.2011.BRRip.XviD-RLF&amp;tr=udp%3A%2F%2Ftracker.openbittorrent.com%3A80&amp;tr=udp%3A%2F%2Fopen.demonii.com%3A1337&amp;tr=udp%3A%2F%2Ftracker.coppersurfer.tk%3A6969&amp;tr=udp%3A%2F%2Fexodus.desync.com%3A6969","seeders":0,"leechers":0,"uploader":"rlf-rls","files":-1,"time":1324758141,"description":"The.Amityville.Haunting.2011.BRRip.XviD-RLF \n-------------------------------------------\n                                            \n\nGENERAL\n\n\nComplete name: rlf-amityville.avi\nFormat: AVI\nFormat/Info: Audio Video Interleave\nFile size: 703 MiB\nDuration: 1h 26mn\nOverall bit rate: 1 135 Kbps\nLanguage: English\nSubs: N/A \nEncoder: Ralf\n\nVideo:\n\n                     \nFormat: MPEG-4 Visual\nFormat profile: Advanced Simple@L5\nFormat settings, BVOP: 2\nFormat settings, QPel: No\nFormat settings, GMC: No warppoints\nFormat settings, Matrix: H.263\nMuxing mode: Packed bitstream\nCodec ID: XVID\nDuration: 1h 26mn\nBit rate: 1 014 Kbps\nWidth: 688 pixels\nHeight: 384 pixels\nDisplay aspect ratio: 16:9\nFrame rate: 23.976 fps\nColor space: YUV\nChroma subsampling: 4:2:0\nBit depth: 8 bits\nScan type: Progressive\nBits/(Pixel*Frame): 0.160\nStream size: 628 MiB (88%)\nWriting library: XviD 63\n\nAudio:\n\n\nFormat: MPEG Audio\nFormat profile: Layer 3\nCodec ID/Hint: MP3\nDuration: 1h 26mn\nBit rate mode: Constant\nBit rate: 112 Kbps\nChannel(s): 2 channels\nSampling rate: 48.0 KHz\nStream size: 69.4 MiB (10%)\nAlignment: Split accross interleaves\nInterleave, duration: 40 ms (1.00 video frame)\nInterleave, preload duration: 500 ms\n\n\nMOVIE INFO\n\nActual found footage that documents the horrifying experiences of a \nfamily that moved into the infamous haunted house.\n                                &lt;a href=&quot;\nhttp://www.imdb.com/title/tt2042447/&quot; rel=&quot;nofollow&quot; target=&quot;_NEW&quot;&gt;\nhttp://www.imdb.com/title/tt2042447/&lt;/a&gt; &lt;a href=&quot;\nhttp://www.filmweb.pl/film/Amityville+Haunting-2011-636840&quot; rel=&quot;nofollow&quot; target=&quot;_NEW&quot;&gt;\nhttp://www.filmweb.pl/film/Amityville+Haunting-2011-636840&lt;/a&gt;\n\nSCREENS\n &lt;a href=&quot;\nhttp://www.postimg.com/56000/photo-55621.jpg&quot; rel=&quot;nofollow&quot; target=&quot;_NEW&quot;&gt;\nhttp://www.postimg.com/56000/photo-55621.jpg&lt;/a&gt; &lt;a href=&quot;\nhttp://www.postimg.com/56000/photo-55622.jpg&quot; rel=&quot;nofollow&quot; target=&quot;_NEW&quot;&gt;\nhttp://www.postimg.com/56000/photo-55622.jpg&lt;/a&gt; &lt;a href=&quot;\nhttp://www.postimg.com/56000/photo-55623.jpg&quot; rel=&quot;nofollow&quot; target=&quot;_NEW&quot;&gt;\nhttp://www.postimg.com/56000/photo-55623.jpg&lt;/a&gt; &lt;a href=&quot;\nhttp://www.postimg.com/56000/photo-55624.jpg&quot; rel=&quot;nofollow&quot; target=&quot;_NEW&quot;&gt;\nhttp://www.postimg.com/56000/photo-55624.jpg&lt;/a&gt;","torrent":{"xt":"urn:btih:0ff706c94522f523a4e85b0d0eaa4c34dedebc77","amp;dn":"The.Amityville.Haunting.2011.BRRip.XviD-RLF","amp;tr":["udp%3A%2F%2Ftracker.openbittorrent.com%3A80","udp%3A%2F%2Fopen.demonii.com%3A1337","udp%3A%2F%2Ftracker.coppersurfer.tk%3A6969","udp%3A%2F%2Fexodus.desync.com%3A6969"],"infoHash":"0ff706c94522f523a4e85b0d0eaa4c34dedebc77","infoHashBuffer":{"type":"Buffer","data":[15,247,6,201,69,34,245,35,164,232,91,13,14,170,76,52,222,222,188,119]},"announce":[],"urlList":[]}}